<?xml version="1.0" standalone="no"?>
<!DOCTYPE svg PUBLIC "-//W3C//DTD SVG 20010904//EN"
 "http://www.w3.org/TR/2001/REC-SVG-20010904/DTD/svg10.dtd">
<svg version="1.0" xmlns="http://www.w3.org/2000/svg"
 width="500.000000pt" height="500.000000pt" viewBox="0 0 500.000000 500.000000"
 preserveAspectRatio="xMidYMid meet">

<g transform="translate(0.000000,500.000000) scale(0.100000,-0.100000)"
fill="#000000" stroke="none">
<path d="M724 3301 c-2 -2 -4 -35 -4 -73 l0 -68 -127 0 c-71 0 -133 -4 -139
-8 -26 -17 -13 -193 23 -302 60 -186 196 -332 368 -395 28 -10 58 -29 68 -42
10 -13 24 -20 29 -17 6 4 8 2 5 -3 -14 -22 108 -127 189 -163 54 -25 78 -67
77 -136 -1 -93 -70 -174 -148 -174 -43 0 -68 -32 -63 -84 l3 -36 335 -1 c314
0 335 1 341 18 17 45 -20 108 -58 99 -36 -10 -109 41 -133 91 -22 47 -27 132
-9 164 16 30 44 56 56 52 35 -12 171 86 243 174 21 25 63 58 105 80 82 44 197
153 243 230 41 69 71 157 88 263 17 105 18 162 2 178 -8 8 -54 12 -141 12
l-129 0 7 64 c5 46 4 66 -5 71 -13 8 -1218 13 -1226 6z m321 -141 c21 0 98
-81 120 -125 16 -32 20 -62 21 -150 1 -110 11 -188 23 -181 3 2 6 -10 6 -28 0
-30 -32 -106 -45 -106 -3 0 -14 12 -25 28 -39 54 -94 100 -161 133 -131 65
-176 129 -176 250 0 126 53 191 167 201 17 2 36 -3 43 -9 7 -7 19 -13 27 -13z
m571 -5 c132 -78 178 -263 96 -392 -10 -17 -17 -19 -26 -11 -10 10 -9 18 3 42
8 17 17 63 19 103 5 87 -18 144 -79 196 -86 74 -192 74 -279 0 -40 -35 -58
-65 -80 -137 -14 -44 0 -131 27 -173 8 -12 12 -27 8 -33 -10 -17 -33 -11 -40
10 -4 11 -9 18 -13 16 -10 -6 -16 49 -16 144 0 69 5 92 23 125 41 71 98 119
165 136 53 14 145 1 192 -26z m-181 -87 c41 -20 45 -25 45 -59 0 -32 -6 -43
-35 -65 -28 -21 -40 -25 -62 -18 -16 4 -32 8 -38 8 -5 1 -11 23 -13 50 -3 42
1 53 24 77 15 16 29 29 31 29 1 0 23 -10 48 -22z m189 -7 c23 -24 27 -35 24
-76 -3 -42 -6 -49 -28 -52 -13 -2 -29 -8 -33 -12 -6 -6 -25 2 -48 17 -31 22
-38 33 -39 60 0 17 -1 35 -1 40 -2 6 78 52 92 52 3 0 18 -13 33 -29z m-893
-43 c1 -90 18 -189 58 -348 11 -41 18 -77 16 -79 -8 -8 -75 42 -117 87 -79 85
-130 197 -144 322 l-7 60 97 0 96 0 1 -42z m1404 24 c-3 -11 -7 -37 -10 -58
-10 -94 -74 -234 -138 -302 -36 -38 -110 -92 -126 -92 -6 0 -4 16 5 42 8 23
11 50 8 61 -4 13 -2 17 5 13 7 -5 12 2 13 16 3 43 5 53 17 83 7 16 11 41 10
55 -1 14 3 45 10 69 7 25 11 64 9 88 l-3 43 103 0 c96 0 103 -1 97 -18z m-467
-142 c22 -18 23 -22 11 -57 -20 -57 -36 -77 -64 -79 -18 -1 -32 8 -45 26 -17
24 -17 30 -6 65 9 25 23 42 42 51 38 16 35 16 62 -6z m-263 -24 c25 -27 26
-68 1 -95 -38 -42 -83 -16 -104 61 -8 29 -7 39 7 52 20 21 68 12 96 -18z m145
-106 l21 -30 -81 0 -81 0 21 30 c17 24 28 30 60 30 32 0 43 -6 60 -30z m137
-80 c40 -24 72 -75 101 -163 l23 -68 -30 -37 c-16 -20 -42 -49 -58 -64 l-29
-28 -39 40 -39 40 -107 0 -106 0 -42 -45 c-22 -24 -41 -42 -41 -38 0 4 -5 2
-12 -5 -18 -18 -62 -14 -86 8 -30 28 -29 97 2 190 30 88 66 144 109 170 28 17
51 20 177 20 126 0 149 -3 177 -20z"/>
<path d="M1025 3020 c55 -55 101 -100 104 -100 8 0 -9 78 -25 108 -18 37 -78
87 -94 77 -5 -3 -10 -1 -10 4 0 6 -17 11 -37 11 l-38 0 100 -100z"/>
<path d="M877 3073 c-4 -3 -7 -17 -7 -31 0 -18 4 -23 16 -18 8 3 13 2 10 -2
-2 -4 40 -54 94 -112 87 -92 100 -102 115 -90 9 7 15 19 13 26 -3 15 -216 234
-227 234 -4 0 -11 -3 -14 -7z"/>
<path d="M864 2938 c4 -23 19 -58 33 -76 26 -34 103 -77 126 -69 6 2 -28 45
-77 96 l-89 92 7 -43z"/>
<path d="M1103 2753 c-19 -7 -16 -19 10 -36 23 -15 24 -15 23 10 -1 27 -12 35
-33 26z"/>
<path d="M1357 2634 c-4 -4 -7 -18 -7 -31 0 -18 -6 -23 -24 -23 -34 0 -31 -43
4 -50 17 -3 25 -12 25 -25 0 -13 8 -21 23 -23 18 -3 22 1 22 22 0 18 6 25 23
28 14 2 23 11 25 26 3 18 -1 22 -22 22 -19 0 -25 6 -28 27 -3 27 -26 41 -41
27z"/>
<path d="M1617 2627 c-3 -8 3 -13 14 -13 11 0 19 6 19 13 0 7 -6 13 -14 13 -8
0 -16 -6 -19 -13z"/>
<path d="M1564 2566 c-8 -22 3 -33 18 -18 9 9 9 15 0 24 -9 9 -13 7 -18 -6z"/>
<path d="M1677 2574 c-13 -13 -7 -24 14 -24 11 0 19 5 17 12 -5 14 -22 21 -31
12z"/>
<path d="M1617 2504 c-9 -10 2 -24 19 -24 8 0 14 7 14 15 0 15 -21 21 -33 9z"/>
<path d="M2410 2855 l0 -215 125 0 125 0 0 35 0 34 -82 3 -83 3 1 178 1 177
-44 0 -43 0 0 -215z"/>
<path d="M2799 2950 c-75 -22 -108 -72 -108 -163 0 -102 52 -151 162 -153 64
-2 70 0 102 31 19 18 35 37 35 42 0 5 -18 10 -40 11 -22 2 -40 -1 -40 -6 0 -5
-13 -15 -28 -21 -46 -19 -91 5 -106 57 -7 22 -7 22 109 22 l117 0 -5 45 c-9
74 -44 115 -112 134 -45 12 -50 12 -86 1z m102 -87 c15 -41 12 -43 -62 -43
-68 0 -70 1 -64 23 4 12 17 32 31 44 21 19 28 20 55 11 17 -6 34 -21 40 -35z"/>
<path d="M3153 2953 c5 -7 0 -9 -12 -6 -23 6 -77 -24 -85 -46 -3 -9 -9 -21
-12 -28 -3 -7 8 -14 31 -19 29 -5 40 -3 56 15 19 21 64 28 85 13 36 -24 13
-70 -33 -64 -32 5 -93 -16 -119 -40 -31 -28 -29 -90 4 -123 32 -32 100 -35
142 -5 28 20 28 20 33 0 4 -15 14 -20 41 -20 l36 0 0 123 c0 133 -9 164 -52
185 -36 17 -123 28 -115 15z m84 -189 c8 -21 -13 -63 -34 -71 -10 -4 -20 -10
-23 -14 -3 -5 -18 2 -34 14 -22 18 -27 28 -21 46 12 38 99 58 112 25z"/>
<path d="M3466 2950 c-66 -21 -97 -75 -95 -163 2 -58 4 -64 40 -99 36 -34 41
-36 98 -34 70 3 98 19 79 45 -12 14 -11 14 5 2 21 -16 23 -78 3 -104 -8 -10
-31 -23 -51 -28 -29 -8 -41 -7 -61 6 -14 9 -27 22 -30 28 -6 16 -84 9 -84 -7
0 -15 40 -60 65 -73 29 -15 150 -16 177 -2 71 38 91 106 86 298 l-3 134 -43 1
c-37 1 -42 -1 -42 -22 l0 -23 -27 21 c-34 24 -78 32 -117 20z m119 -85 c37
-36 35 -97 -4 -136 -35 -34 -59 -36 -94 -9 -32 25 -42 69 -27 115 20 59 81 75
125 30z"/>
<path d="M3969 2847 c-5 -130 -15 -151 -71 -145 -46 4 -58 34 -58 151 l0 97
-40 0 -40 0 0 -132 c1 -89 5 -138 13 -149 35 -46 128 -54 171 -14 l26 24 0
-24 c0 -22 4 -25 38 -25 l37 0 0 165 0 165 -36 0 -37 0 -3 -113z"/>
<path d="M4214 2949 c-36 -10 -82 -53 -95 -87 -5 -13 -9 -47 -9 -75 0 -59 23
-106 66 -134 34 -22 138 -26 176 -7 26 13 58 50 58 67 0 12 -73 4 -88 -10 -23
-22 -80 -16 -107 12 -49 48 -37 55 90 55 114 0 115 0 115 24 0 38 -21 89 -48
118 -14 15 -28 26 -30 23 -3 -3 -10 -1 -16 4 -18 15 -79 21 -112 10z m106 -77
c9 -9 14 -25 12 -34 -3 -15 -15 -18 -73 -18 -38 0 -69 2 -69 5 0 15 32 65 47
74 20 11 60 -2 83 -27z"/>
<path d="M2410 2338 l0 -213 120 1 c79 0 128 5 144 14 29 15 56 66 56 105 0
34 -29 83 -53 91 -16 5 -15 9 13 40 51 59 35 130 -36 160 -21 9 -71 14 -139
14 l-105 0 0 -212z m183 141 c34 -9 37 -13 37 -46 0 -47 -22 -62 -87 -63 l-53
0 0 53 c0 30 3 57 7 60 9 10 53 8 96 -4z m17 -179 c31 -17 43 -46 29 -72 -17
-33 -28 -38 -91 -38 l-58 0 0 60 0 60 51 0 c28 0 59 -5 69 -10z"/>
<path d="M3188 2433 c-33 -5 -88 -57 -88 -83 0 -55 45 -89 141 -109 40 -8 58
-33 40 -55 -19 -22 -67 -20 -91 4 -27 27 -90 28 -90 2 0 -25 45 -66 61 -57 7
5 10 4 6 -3 -5 -6 8 -13 33 -17 96 -16 170 25 170 95 0 52 -41 85 -130 104
-14 3 -34 12 -45 19 -16 13 -17 17 -6 31 19 22 68 20 88 -4 12 -13 30 -20 55
-20 l39 0 -15 28 c-8 15 -22 34 -32 43 -20 18 -91 29 -136 22z"/>
<path d="M2818 2407 c-14 -12 -29 -32 -33 -44 -6 -20 -3 -23 22 -23 32 0 106
34 96 44 -4 3 7 -1 25 -9 34 -17 52 -53 32 -65 -7 -4 -40 -11 -73 -15 -47 -5
-66 -12 -88 -35 -34 -33 -36 -63 -10 -106 25 -42 83 -54 135 -29 20 10 36 21
36 26 0 5 5 9 10 9 6 0 10 -9 10 -20 0 -16 7 -20 35 -20 l35 0 0 116 c0 166
-19 193 -135 194 -58 0 -75 -4 -97 -23z m152 -170 c0 -12 -7 -33 -16 -45 -12
-18 -24 -22 -52 -20 -33 3 -37 7 -40 33 -5 37 19 55 70 55 33 0 38 -3 38 -23z"/>
<path d="M3475 2419 c-40 -20 -62 -69 -64 -146 -2 -71 -2 -72 37 -111 64 -64
164 -68 222 -10 42 42 39 58 -10 58 -36 0 -44 -6 -42 -30 0 -3 -17 -6 -39 -8
-31 -2 -45 3 -64 22 -14 14 -25 36 -25 50 l0 25 105 -2 105 -2 0 38 c0 54 -21
91 -67 115 -26 14 -130 15 -158 1z m129 -61 c29 -41 21 -48 -49 -48 -70 0 -78
7 -49 48 10 15 25 22 49 22 24 0 39 -7 49 -22z"/>
</g>
</svg>
